<?xml version="1.0" encoding="UTF-8"?>
<svg enable-background="new 0 0 512 512" version="1.1" viewBox="0 0 512 512" xml:space="preserve" xmlns="http://www.w3.org/2000/svg">

	
		<path d="m496 48h-480c-8.82 0-16 7.18-16 16v384c0 8.82 7.18 16 16 16h480c8.82 0 16-7.18 16-16v-384c0-8.82-7.18-16-16-16z" fill="#FFE0B1"/>
	
	
		
			<path d="m400 416h-56c-4.422 0-8-3.578-8-8s3.578-8 8-8h56c4.422 0 8 3.578 8 8s-3.578 8-8 8z" fill="#5C546A"/>
		
	
	
		
			<path d="m448 416h-16c-4.422 0-8-3.578-8-8s3.578-8 8-8h16c4.422 0 8 3.578 8 8s-3.578 8-8 8z" fill="#8A8895"/>
		
	
	
		
			<path d="m448 352h-104c-4.422 0-8-3.578-8-8s3.578-8 8-8h104c4.422 0 8 3.578 8 8s-3.578 8-8 8z" fill="#5C546A"/>
		
	
	
		
			<path d="m376 384h-32c-4.422 0-8-3.578-8-8s3.578-8 8-8h32c4.422 0 8 3.578 8 8s-3.578 8-8 8z" fill="#5C546A"/>
		
	
	
		
			<path d="m416 384h-8c-4.422 0-8-3.578-8-8s3.578-8 8-8h8c4.422 0 8 3.578 8 8s-3.578 8-8 8z" fill="#8A8895"/>
		
	
	
		<circle cx="360" cy="288" r="24" fill="#FF4F19"/>
	
	
		<path d="m184 48v192c0 2.773 1.438 5.344 3.797 6.805 2.359 1.469 5.297 1.578 7.781 0.352l60.422-30.212 60.422 30.211c1.133 0.563 2.352 0.844 3.578 0.844 1.461 0 2.922-0.398 4.203-1.195 2.359-1.461 3.797-4.031 3.797-6.805v-192h-144z" fill="#9E6459"/>
	
















</svg>
