<?xml version="1.0" encoding="UTF-8"?>
<svg enable-background="new 0 0 512 512" version="1.1" viewBox="0 0 512 512" xml:space="preserve" xmlns="http://www.w3.org/2000/svg">
<path d="m282.52 7.887c-76.577 0.44-137.96 63.723-137.96 140.3v36.322h42.053v-36.615c0-53.25 42.52-97.436 95.768-97.952 53.769-0.52 97.677 43.068 97.677 96.719v75.193c0 11.402 8.866 21.112 20.26 21.517 11.962 0.425 21.793-9.146 21.793-21.013v-75.696c1e-3 -76.793-62.693-139.22-139.59-138.78z" fill="#687F82"/>
<path d="m464.16 504.12h-361.66v-250.22c0-17.419 14.12-31.54 31.54-31.54h298.58c17.419 0 31.54 14.122 31.54 31.54v250.22z" fill="#4ACFD9"/>
<g fill="#FFD1A9">
	<path d="m359.03 432.62c0-41.805-33.891-75.696-75.696-75.696s-75.696 33.891-75.696 75.696v42.053h151.39v-42.053z"/>
	<circle cx="283.34" cy="298.05" r="46.259"/>
</g>
<path d="m134.04 222.36c-17.42 0-31.54 14.12-31.54 31.54v250.22h180.83v-281.76h-149.29z" fill="#0295AA"/>
<g fill="#FF8C29">
	<path d="m207.64 432.62v42.053h75.696v-117.75c-41.807 1e-3 -75.696 33.892-75.696 75.697z"/>
	<path d="m237.08 298.05c0 25.548 20.71 46.259 46.259 46.259v-92.517c-25.549 0-46.259 20.71-46.259 46.258z"/>
</g>
<g fill="#fff">
	<path d="m422.11 390.04c-4.355 0-7.885-3.53-7.885-7.885v-105.13c0-4.355 3.53-7.885 7.885-7.885s7.885 3.53 7.885 7.885v105.13c0 4.355-3.53 7.885-7.885 7.885z"/>
	<path d="m422.11 461.54c-4.355 0-7.885-3.53-7.885-7.885v-42.053c0-4.355 3.53-7.885 7.885-7.885s7.885 3.53 7.885 7.885v42.053c0 4.355-3.53 7.885-7.885 7.885z"/>
</g>
<g fill="#F0353D">
	<path d="m80.546 191.08h-32.71c-4.355 0-7.885-3.53-7.885-7.885s3.53-7.885 7.885-7.885h32.71c4.355 0 7.885 3.53 7.885 7.885s-3.53 7.885-7.885 7.885z"/>
	<path d="m89.678 164.31c-2.018 0-4.036-0.77-5.575-2.31l-20.815-20.815c-3.079-3.079-3.079-8.072 0-11.152s8.072-3.079 11.15 0l20.815 20.815c3.079 3.079 3.079 8.072 0 11.152-1.539 1.54-3.558 2.31-5.575 2.31z"/>
	<path d="m68.651 238.65c-2.018 0-4.036-0.77-5.575-2.31-3.079-3.079-3.079-8.072 0-11.15l20.815-20.815c3.079-3.079 8.072-3.079 11.15 0 3.079 3.079 3.079 8.072 0 11.15l-20.815 20.815c-1.539 1.54-3.557 2.31-5.575 2.31z"/>
</g>
<path d="m432.62 214.47h-2.628v-67.811c0-39.275-15.378-76.194-43.302-103.96-27.717-27.558-64.389-42.702-103.35-42.702-0.287 0-0.576 1e-3 -0.864 2e-3 -80.398 0.462-145.8 66.938-145.8 148.19v36.322c0 4.355 3.53 7.885 7.885 7.885h42.053c4.355 0 7.885-3.53 7.885-7.885v-36.615c0-49.193 39.459-89.597 87.96-90.067 23.882-0.187 46.361 8.91 63.356 25.741 16.998 16.835 26.36 39.241 26.36 63.093v67.811h-238.13c-21.74 0-39.425 17.686-39.425 39.425v250.22c0 4.355 3.53 7.885 7.885 7.885h361.66c4.355 0 7.885-3.53 7.885-7.885v-250.22c0-21.739-17.685-39.425-39.425-39.425zm-75.715-142.11c-20.009-19.816-46.504-30.609-74.605-30.305-57.113 0.554-103.58 48.031-103.58 105.84v28.73h-26.283v-28.437c0-72.602 58.374-132 130.13-132.42 0.259-1e-3 0.512-2e-3 0.771-2e-3 34.765 0 67.497 13.519 92.235 38.115 24.924 24.782 38.651 57.731 38.651 92.776v67.811h-26.283v-67.811c-1e-3 -28.092-11.023-54.478-31.035-74.297zm99.37 423.87h-345.89v-242.33c0-13.044 10.611-23.655 23.655-23.655h298.58c13.044 0 23.655 10.611 23.655 23.655v242.33z"/>
<path d="m297.58 350.28c22.964-6.271 39.9-27.304 39.9-52.229 0-29.855-24.289-54.144-54.144-54.144s-54.144 24.289-54.144 54.144c0 24.925 16.936 45.958 39.9 52.229-39.322 6.783-69.338 41.112-69.338 82.342v42.053c0 4.355 3.53 7.885 7.885 7.885h151.39c4.355 0 7.885-3.53 7.885-7.885v-42.053c2e-3 -41.23-30.014-75.559-69.336-82.342zm-52.617-52.23c0-21.159 17.215-38.374 38.374-38.374s38.374 17.215 38.374 38.374-17.215 38.374-38.374 38.374-38.374-17.214-38.374-38.374zm106.18 168.74h-135.62v-34.168c0-37.391 30.42-67.811 67.811-67.811s67.811 30.42 67.811 67.811v34.168z"/>















</svg>
