<?xml version="1.0" encoding="UTF-8"?>
<svg enable-background="new 0 0 480 480" version="1.1" viewBox="0 0 480 480" xml:space="preserve" xmlns="http://www.w3.org/2000/svg">
<path d="M381.744,480H98.256C79.424,480,64,464.576,64,445.744V34.256C64,15.424,79.424,0,98.256,0h283.488  C400.576,0,416,15.424,416,34.256v411.488C416,464.576,400.576,480,381.744,480z" fill="#32BEA6"/>
<g fill="#fff">
	<polygon points="155.97 121.2 117.14 94.16 126.3 81.04 152 98.944 185.41 51.248 198.5 60.416"/>
	<rect x="240" y="74.96" width="122" height="16"/>
	<rect x="240" y="179.65" width="122" height="16"/>
	<rect x="240" y="284.34" width="122" height="16"/>
	<rect x="240" y="389.04" width="122" height="16"/>
	<path d="m154.32 324.46c-17.712 0-32.128-14.4-32.128-32.128 0-17.696 14.4-32.112 32.128-32.112 17.696 0 32.112 14.4 32.112 32.112-0.016 17.728-14.416 32.128-32.112 32.128zm0-48.224c-8.896 0-16.128 7.232-16.128 16.112 0 8.896 7.232 16.128 16.128 16.128 8.88 0 16.112-7.232 16.112-16.128-0.016-8.88-7.248-16.112-16.112-16.112z"/>
	<path d="m154.32 219.76c-17.712 0-32.128-14.4-32.128-32.112s14.4-32.112 32.128-32.112c17.696 0 32.112 14.4 32.112 32.112s-14.416 32.112-32.112 32.112zm0-48.224c-8.896 0-16.128 7.232-16.128 16.112s7.232 16.112 16.128 16.112c8.88 0 16.112-7.232 16.112-16.112s-7.248-16.112-16.112-16.112z"/>
	<path d="m154.32 429.15c-17.712 0-32.128-14.4-32.128-32.112s14.4-32.112 32.128-32.112c17.696 0 32.112 14.4 32.112 32.112s-14.416 32.112-32.112 32.112zm0-48.208c-8.896 0-16.128 7.232-16.128 16.112s7.232 16.112 16.128 16.112c8.88 0 16.112-7.232 16.112-16.112s-7.248-16.112-16.112-16.112z"/>
</g>















</svg>
