<?xml version="1.0" encoding="UTF-8"?>
<svg version="1.1" viewBox="0 0 900 600" xmlns="http://www.w3.org/2000/svg">
<rect width="900" height="600" fill="#001220"/>
<path d="m0 124 21.5-3.8c21.5-3.9 64.5-11.5 107.3-14.5 42.9-3 85.5-1.4 128.4 0.6 42.8 2 85.8 4.4 128.6 2.5 42.9-1.8 85.5-7.8 128.4-11.8 42.8-4 85.8-6 128.6-0.5 42.9 5.5 85.5 18.5 128.4 21.8 42.8 3.4 85.8-3 107.3-6.1l21.5-3.2v-109h-21.5-107.3-128.4-128.6-128.4-128.6-128.4-107.3-21.5z" fill="#60f"/>
<path d="m0 50 21.5-1.3c21.5-1.4 64.5-4 107.3-0.9 42.9 3.2 85.5 12.2 128.4 14 42.8 1.9 85.8-3.5 128.6-7.3 42.9-3.8 85.5-6.2 128.4-1.7 42.8 4.5 85.8 15.9 128.6 16.5 42.9 0.7 85.5-9.3 128.4-12 42.8-2.6 85.8 2 107.3 4.4l21.5 2.3v-64h-21.5-107.3-128.4-128.6-128.4-128.6-128.4-107.3-21.5z" fill="#00dbde"/>
</svg>
