<?xml version="1.0" encoding="UTF-8"?>
<svg enable-background="new 0 0 512 512" version="1.1" viewBox="0 0 512 512" xml:space="preserve" xmlns="http://www.w3.org/2000/svg">
<circle cx="256" cy="256" r="256" fill="#324A5E"/>
<path d="m437.02 437.02c37.223-37.221 60.575-83.056 70.08-131.09l-70.444-70.444c0 0.514-93.579 0.51-152.59 0.459l-64.824-64.824c-0.169 0.169-1.948 0.817-4.486 1.683l-10.755-10.757s-106.7 131.02-105.88 130.2l213.63 213.63c45.909-10.195 89.557-33.144 125.27-68.861z" fill="#2B3B4E"/>
<path d="m315.53 133-172.37 172.37c-7.718 7.718-7.718 20.233 0 27.951 7.72 7.72 20.233 7.718 27.951 0-7.718 7.718-7.718 20.233 0 27.953 7.718 7.718 20.233 7.718 27.951 0-7.718 7.718-7.718 20.233 0 27.951s20.233 7.718 27.951 0c-7.718 7.718-7.718 20.233 0 27.951s20.233 7.718 27.951 0l104.42-104.42c11.798-11.8 11.798-30.93 0-42.729l46.587-46.587-90.439-90.441z" fill="#EABC92"/>
<path d="m405.98 223.44-39.458-39.458-183 183c5.57 0.443 11.29-1.453 15.55-5.713-7.718 7.72-7.718 20.233 0 27.951 7.718 7.72 20.233 7.72 27.951 0-7.718 7.72-7.718 20.233 0 27.951 7.718 7.72 20.233 7.72 27.951 0l104.42-104.42c11.798-11.8 11.798-30.93 0-42.729l46.59-46.585z" fill="#DBAA82"/>
<path d="m181.97 152.49 172.37 172.37c7.718 7.718 7.718 20.233 0 27.951-7.72 7.72-20.233 7.718-27.951 0 7.718 7.718 7.718 20.233 0 27.953-7.718 7.718-20.233 7.718-27.951 0 7.718 7.718 7.718 20.233 0 27.951s-20.233 7.718-27.951 0c7.718 7.718 7.718 20.233 0 27.951s-20.233 7.718-27.951 0l-104.42-104.42c-11.798-11.798-11.798-30.93 0-42.729l-46.587-46.587 90.443-90.442z" fill="#F4E3C3"/>
<path d="m91.526 242.93 46.587 46.587c-11.8 11.8-11.8 30.929 0 42.729l104.42 104.42c7.718 7.72 20.233 7.72 27.951 0s7.718-20.233 0-27.951c7.718 7.72 20.233 7.718 27.951 0 6.923-6.923 7.616-17.694 2.12-25.412l-174.7-174.7-34.331 34.33z" fill="#FED8B2"/>
<rect transform="matrix(-.7071 -.7071 .7071 -.7071 88.405 462.72)" x="113.68" y="127.4" width="52.706" height="171.3" fill="#84DBFF"/>
<rect transform="matrix(-.7071 .7071 -.7071 -.7071 357.01 343.67)" x="67.948" y="219.42" width="78.763" height="52.706" fill="#31BAFD"/>
<path d="m303.24 217.5-29.437 29.437c-8.128 8.128-21.307 8.128-29.437 0l-44.156 44.156c-8.128 8.128-21.307 8.128-29.437 0-8.128-8.128-8.128-21.307 0-29.437l132.47-132.47v88.311z" fill="#EABC92"/>
<rect transform="matrix(.7071 -.7071 .7071 .7071 -32.166 309.45)" x="331.1" y="107.9" width="52.706" height="171.3" fill="#B5F1F4"/>
<rect transform="matrix(-.7071 -.7071 .7071 -.7071 503.53 655.98)" x="344.62" y="197.36" width="86.015" height="52.706" fill="#84DBFF"/>
<path d="m239.94 434.08 14.281-14.281c7.72-7.72 7.718-20.233 0-27.951-7.72-7.72-20.233-7.72-27.951 0 7.718-7.718 7.718-20.233 0-27.951s-20.233-7.72-27.951 0c7.72-7.72 7.718-20.233 0-27.953s-20.233-7.72-27.951 0c7.718-7.72 7.718-20.233 0-27.951-7.718-7.72-20.233-7.72-27.951 0l-11.807 11.807c1.402 4.558 3.899 8.849 7.506 12.455l101.82 101.82z" fill="#EABC92"/>
<path d="m226.27 391.84c7.718-7.718 7.718-20.233 0-27.951-7.718-7.72-20.233-7.72-27.951 0 4.687-4.687 6.509-11.138 5.504-17.215l-25.641 25.641 61.759 61.759 14.281-14.281c7.718-7.72 7.718-20.233 0-27.951-7.718-7.72-20.234-7.72-27.952-2e-3z" fill="#DBAA82"/>















</svg>
