<?xml version="1.0" encoding="UTF-8"?>
<svg enable-background="new 0 0 512 512" version="1.1" viewBox="0 0 512 512" xml:space="preserve" xmlns="http://www.w3.org/2000/svg">
<g fill="#E54728">
	<path d="m391.98 472.7v20.087c0 10.615-8.605 19.207-19.22 19.207h-233.52c-10.615 0-19.207-8.592-19.207-19.207v-20.087h271.95z"/>
	<path d="m444.1 108.74v332.7c0 18.721-15.174 33.895-33.895 33.895h-308.43c-18.708 0-33.882-15.174-33.882-33.895v-332.7c0-60.052 48.688-108.74 108.74-108.74h158.72c43.354 0 80.783 25.369 98.256 62.049 6.726 14.149 10.497 29.98 10.497 46.691z"/>
</g>
<path d="m432.28 108.74v332.7c0 12.165-9.906 22.071-22.071 22.071h-308.43c-12.165 0-22.058-9.906-22.058-22.071v-332.7c0-53.444 43.472-96.916 96.916-96.916h158.72c37.193 0 71.574 21.717 87.575 55.309 6.215 13.046 9.355 27.051 9.355 41.607z" fill="#F95428"/>
<path d="m354.52 107.74h-197.05v47.295h-3.718c-12.73 0-24.265-5.163-32.608-13.505-8.342-8.356-13.505-19.877-13.505-32.608 0-25.474 20.652-46.126 46.113-46.126h204.47c12.73 0 24.265 5.163 32.621 13.505 8.342 8.356 13.505 19.877 13.505 32.621 0 25.461-20.652 46.113-46.126 46.113h-3.705v-47.295z" fill="#35D8B9"/>
<rect x="132.99" y="97.889" width="245.99" height="19.706" fill="#333"/>
<polygon points="354.52 145.18 354.52 398.1 197.32 265.33 227.1 205.96 224.47 133.96 290.26 97.889 354.52 97.889" fill="#ccc"/>
<polygon points="354.52 97.889 354.52 111.41 285.03 111.41 290.26 97.889" fill="#B3B3B3"/>
<g fill="#E6E6E6">
	<polygon points="290.26 97.889 285.03 111.41 256 186.5 226.95 111.41 221.72 97.889"/>
	<polygon points="256 213.66 354.52 398.1 157.47 398.1"/>
</g>
<polygon points="304.32 205.96 256 269.19 157.47 398.1 157.47 97.889 221.72 97.889 232.06 111.41 256 142.73" fill="#F2F2F2"/>
<polygon points="290.26 97.889 285.03 111.41 226.95 111.41 221.72 97.889" fill="#ccc"/>
<polygon points="232.06 111.41 157.47 111.41 157.47 97.889 221.72 97.889" fill="#E6E6E6"/>















</svg>
