<?xml version="1.0" encoding="UTF-8"?>
<svg version="1.1" viewBox="0 0 960 100" xmlns="http://www.w3.org/2000/svg">
<rect width="960" height="100" fill="#012"/>
<path d="m0 31 17.8-1.8c17.9-1.9 53.5-5.5 89-7.7s70.9-2.8 106.4-2.8 71.1 0.6 106.8 2.8 71.3 5.8 106.8 6.2c35.5 0.3 70.9-2.7 106.4-5.5 35.5-2.9 71.1-5.5 106.8-3.9 35.7 1.7 71.3 7.7 106.8 10 35.5 2.4 70.9 1 106.4-1.1 35.5-2.2 71.1-5.2 89-6.7l17.8-1.5v-19h-17.8-89-106.4-106.8-106.8-106.4-106.8-106.8-106.4-89-17.8z" fill="#4d00ff"/>
<path d="m0 4 17.8 1.7c17.9 1.6 53.5 5 89 6.3s70.9 0.7 106.4-0.7c35.5-1.3 71.1-3.3 106.8-2.1 35.7 1.1 71.3 5.5 106.8 7.5s70.9 1.6 106.4 0.6 71.1-2.6 106.8-2.8 71.3 1.2 106.8 0.8c35.5-0.3 70.9-2.3 106.4-3.8s71.1-2.5 89-3l17.8-0.5v-8h-17.8-89-106.4-106.8-106.8-106.4-106.8-106.8-106.4-89-17.8z" fill="#f5f5f5"/>
</svg>
