<?xml version="1.0" encoding="UTF-8"?>
<svg enable-background="new 0 0 503.82 503.82" version="1.1" viewBox="0 0 503.82 503.82" xml:space="preserve" xmlns="http://www.w3.org/2000/svg">
<g transform="translate(1 1)">
	<path d="m491.91 112.84-270.27 198.92 167.87 109.12 113.31-306.36c-0.839 0-1.678-1.679-10.911-1.679" fill="#E2E3E5"/>
	<path d="m175.48 408.29 99.043-66.308" fill="#B6B6B6"/>
	<g fill="#ccc">
		<polygon points="209.05 299.17 175.48 408.29 274.52 341.98"/>
		<polygon points="209.05 299.17 176.32 408.29 150.3 265.6 494.43 89.336"/>
		<path d="m486.03 104.44c-3.357 0-5.875-1.679-7.554-4.197l-269.43 198.92 167.87 109.12 111.63-303.84h-2.518"/>
	</g>
	<polygon points="444.07 122.91 209.05 299.17 360.13 391.5 460.85 114.52" fill="#E2E3E5"/>
	<path d="m466.73 95.212-459.96 94.846 143.53 75.541 323.15-165.35c-3.358-0.839-5.037-2.518-6.715-5.036" fill="#fff"/>
	<path d="m444.07 114.52-411.28 92.328 117.51 58.754 299.65-146.05c-2.518-0.839-5.036-2.518-5.876-5.036" fill="#E2E3E5"/>
	<g fill="#B6B6B6">
		<path d="m376.92 416.68c-1.679 0-3.357-0.839-4.197-1.679l-167.87-109.12c-2.518-0.839-4.197-3.357-4.197-6.715 0-2.518 0.839-5.036 3.357-6.715l201.44-147.72-250.96 128.42c-2.518 0.839-5.036 0.839-7.554 0l-143.53-75.54c-3.357-1.679-5.036-5.036-4.197-8.393 0-4.197 2.518-6.715 5.875-7.554l486.82-100.72h4.197c1.679 0.839 3.357 1.679 5.036 3.357v0.839c1.679 1.679 1.679 3.357 1.679 5.036v1.679 0.839l-117.51 318.95c-0.839 2.518-2.518 4.197-5.036 5.036h-3.357zm-152.76-118.35 148.56 96.525 104.08-282.02-252.64 185.5zm-192.21-104.92 118.35 62.951 285.38-146.05-403.72 83.095z"/>
		<path d="m175.48 416.68c-2.518 0-5.036-1.679-6.715-3.357-2.518-4.197-1.679-9.233 2.518-11.751l99.043-66.308c4.197-2.518 9.233-1.679 11.751 2.518s1.679 9.233-2.518 11.751l-99.043 66.308c-1.678-1e-3 -3.357 0.839-5.036 0.839z"/>
		<path d="m176.32 416.68c-0.84 0-0.84 0 0 0-4.197 0-7.554-3.357-8.393-6.715l-26.02-142.69c-0.839-3.357 0.839-7.554 4.197-9.233l344.13-176.26c4.197-1.679 8.393-0.839 10.911 3.357 2.518 3.357 1.679 8.393-2.518 10.911l-282.02 208.16-32.733 106.6c-0.84 3.358-4.197 5.876-7.554 5.876zm-16.787-146.05 18.466 102.4 22.662-75.541c0.839-1.679 1.679-3.357 3.357-4.197l201.44-147.72-245.93 125.06z"/>
		<path d="m175.48 416.68c-1.679 0-3.357-0.839-5.036-1.679-2.518-2.518-4.197-5.875-3.357-9.233l33.574-109.12c0.839-2.518 2.518-4.197 5.036-5.036s5.036-0.839 7.554 0.839l65.469 42.807c2.518 1.679 4.197 4.197 4.197 6.715s-1.679 5.875-3.357 6.715l-99.043 66.308c-1.679 0.839-3.358 1.679-5.037 1.679zm38.61-104.08-23.502 75.541 68.826-46.164-45.324-29.377z"/>
	</g>
</g>















</svg>
